#N canvas 773 303 450 300 10;
#X text 1 9 combine;
#X obj 95 47 inlet;
#X obj 253 50 inlet;
#X obj 95 248 outlet;
#X obj 253 110 list fromsymbol;
#X obj 96 109 list fromsymbol;
#X obj 99 186 list tosymbol;
#X obj 97 79 list;
#X obj 253 82 list;
#X obj 98 215 list trim;
#X obj 98 147 list append;
#X obj 312 50 loadbang;
#X obj 313 80 symbol \$2;
#X obj 147 46 loadbang;
#X obj 147 79 symbol \$1;
#X connect 1 0 7 0;
#X connect 2 0 8 0;
#X connect 4 0 10 1;
#X connect 5 0 10 0;
#X connect 6 0 9 0;
#X connect 7 0 5 0;
#X connect 8 0 4 0;
#X connect 9 0 3 0;
#X connect 10 0 6 0;
#X connect 11 0 12 0;
#X connect 12 0 8 0;
#X connect 13 0 14 0;
#X connect 14 0 7 1;
