#N canvas 78 23 307 491 10;
#X obj 58 30 inlet, f 8;
#X obj 59 396 outlet;
#X text 139 59 oAddSlash;
#X obj 79 142 list split 1;
#X obj 114 167 t b a;
#X obj 80 186 list fromsymbol;
#X obj 80 213 list prepend 47;
#X obj 59 346 list tosymbol;
#X obj 79 269 t b a;
#X obj 59 322 list;
#X obj 80 241 list append;
#X obj 143 305 list;
#X obj 79 109 list;
#X obj 149 83 t b b b;
#X obj 58 59 t b a b;
#X connect 0 0 14 0;
#X connect 3 0 5 0;
#X connect 3 1 4 0;
#X connect 4 0 12 0;
#X connect 4 1 12 1;
#X connect 5 0 6 0;
#X connect 6 0 10 0;
#X connect 7 0 1 0;
#X connect 8 0 11 0;
#X connect 8 1 11 1;
#X connect 9 0 7 0;
#X connect 10 0 8 0;
#X connect 11 0 9 1;
#X connect 11 0 10 1;
#X connect 12 0 3 0;
#X connect 13 0 12 1;
#X connect 13 1 10 1;
#X connect 13 2 11 1;
#X connect 14 0 9 0;
#X connect 14 1 12 0;
#X connect 14 2 13 0;
