#N canvas 0 22 450 300 10;
#X obj 114 121 list prepend;
#X obj 183 74 loadbang;
#X msg 183 97 47;
#X obj 113 167 list tosymbol;
#X obj 84 97 list fromsymbol;
#X obj 199 144 list fromsymbol;
#X obj 114 145 list prepend;
#X obj 115 214 outlet;
#X obj 38 41 inlet;
#X obj 316 78 inlet;
#X obj 75 68 list;
#X connect 0 0 6 0;
#X connect 1 0 2 0;
#X connect 2 0 0 1;
#X connect 3 0 7 0;
#X connect 4 0 0 0;
#X connect 5 0 6 1;
#X connect 6 0 3 0;
#X connect 8 0 10 0;
#X connect 9 0 5 0;
#X connect 10 0 4 0;
