#N canvas 350 115 757 627 10;
#X msg 43 142 listen \$1;
#X obj 44 50 inlet;
#X obj 256 214 list tosymbol;
#X obj 256 239 list fromsymbol;
#X obj 257 317 list tosymbol;
#X obj 257 361 list prepend set;
#X obj 257 456 list tosymbol;
#X obj 257 381 list trim;
#X obj 283 290 list length;
#X obj 257 404 t b a;
#X obj 256 263 t a a;
#X obj 43 189 t a a;
#X obj 43 220 list split;
#X obj 41 396 oscparse;
#X obj 42 505 list prepend;
#X obj 43 251 route 0;
#X obj 43 282 route 0;
#X obj 43 313 route 0;
#X obj 42 562 outlet;
#X obj 96 471 outlet;
#X text 119 276 <(2);
#X text 359 231 <(1);
#X text 418 132 v1 supporte un seul float;
#X text 418 133 v1 supporte un seul float;
#X text 567 274 enlever les slash;
#X text 421 227 2) s'assurer de ne plus avoir de zero qui commence
la liste de sorte a en ajouter seulement 3 et un 47 (slash);
#X text 419 181 1) list tosymbol a la particularite d elaguer tout
ce qui viens apres un espace utile pour composer le radical du message
OSC;
#X obj 42 349 route 0;
#X obj 257 339 route symbol;
#X obj 257 432 oscformat;
#X obj 258 482 route symbol;
#X obj 305 505 outlet;
#X obj 43 165 netreceive -u -b;
#X obj 116 28 loadbang;
#X obj 88 51 list append \$1;
#X obj 88 30 bng 15 250 50 0 empty empty empty 17 7 0 10 -262144 -1
-1;
#X obj 55 86 route 0;
#X obj 41 420 list trim;
#X obj 42 537 list trim;
#X obj 96 373 list prepend 47 104 105 0;
#X obj 42 444 route hi;
#X text 18 9 pd-osc/oReceive;
#X obj 42 471 t a a;
#X obj 257 505 t a a;
#X msg 32 31 0, f 6;
#X obj 43 112 t f 0;
#X text 419 118 v2 support adaptatif;
#X text 52 375 (3)>;
#X text 418 258 3) voudoo magic ascii string parsing;
#X text 421 17 inlet 1 : définir le port;
#X text 419 32 outlet 1 : reception OSC complet (path + data);
#X text 417 46 outlet 2 : reception du Data (sans le path);
#X text 419 59 outlet 3 : Reception du Path (sans le Data;
#X text 441 74 outlet 2 et 3 sont synchronisé de sorte que 3 est avant
2 ce qui permet de faire des sends dynamique;
#X connect 0 0 32 0;
#X connect 1 0 45 0;
#X connect 2 0 3 0;
#X connect 3 0 10 0;
#X connect 4 0 28 0;
#X connect 5 0 7 0;
#X connect 6 0 30 0;
#X connect 7 0 9 0;
#X connect 8 0 12 1;
#X connect 9 0 29 0;
#X connect 9 1 29 0;
#X connect 10 0 4 0;
#X connect 10 1 8 0;
#X connect 11 0 12 0;
#X connect 11 1 2 0;
#X connect 12 1 15 0;
#X connect 13 0 37 0;
#X connect 14 0 38 0;
#X connect 15 0 16 0;
#X connect 15 1 39 0;
#X connect 16 0 17 0;
#X connect 16 1 39 0;
#X connect 17 0 27 0;
#X connect 17 1 39 0;
#X connect 27 0 39 0;
#X connect 27 1 39 0;
#X connect 28 0 5 0;
#X connect 29 0 6 0;
#X connect 30 0 43 0;
#X connect 32 0 11 0;
#X connect 33 0 34 0;
#X connect 34 0 36 0;
#X connect 35 0 34 0;
#X connect 36 1 45 0;
#X connect 37 0 40 0;
#X connect 38 0 18 0;
#X connect 39 0 13 0;
#X connect 40 0 42 0;
#X connect 42 0 14 0;
#X connect 42 1 19 0;
#X connect 43 0 14 1;
#X connect 43 1 31 0;
#X connect 44 0 45 0;
#X connect 45 0 0 0;
#X connect 45 1 0 0;
