#N canvas 0 22 450 300 10;
#X obj 64 182 oscformat;
#X obj 64 203 oscparse;
#X obj 59 58 list trim;
#X obj 60 83 list split 1;
#X obj 63 138 list;
#X obj 62 104 t b a;
#X obj 98 131 list prepend set;
#X obj 98 154 list trim;
#X obj 58 30 inlet, f 8;
#X obj 62 255 outlet;
#X obj 63 229 list trim;
#X text 10 12 oRemSlash;
#X text 210 48 split list at Slashs in a symbol;
#X connect 0 0 1 0;
#X connect 1 0 10 0;
#X connect 2 0 3 0;
#X connect 3 0 5 0;
#X connect 3 1 4 1;
#X connect 4 0 0 0;
#X connect 5 0 4 0;
#X connect 5 1 6 0;
#X connect 6 0 7 0;
#X connect 7 0 0 0;
#X connect 8 0 2 0;
#X connect 10 0 9 0;
