#N canvas 331 264 581 385 10;
#X obj 37 67 list split 1;
#X obj 86 143 list prepend set;
#X obj 14 104 t b l;
#X obj 36 295 outlet;
#X obj 86 171 list trim;
#X obj 35 240 list prepend send;
#X obj 35 263 list trim;
#X obj 35 211 oscformat;
#X obj 37 9 inlet;
#X obj 448 7 inlet;
#X obj 274 263 list prepend connect;
#X obj 274 289 list trim;
#X obj 15 142 list;
#X obj 274 365 netsend -u -b;
#X obj 320 171 list trim;
#X obj 320 38 loadbang;
#X obj 320 196 route 0;
#X obj 320 66 list append \$1 \$2;
#X text 85 8 list input;
#X obj 37 34 list trim;
#X obj 274 386 outlet;
#X text 330 19 connect to;
#X obj 274 230 t a b;
#X msg 302 316 disconnect;
#X obj 319 130 list;
#X obj 319 101 t b a;
#X obj 445 65 route connect;
#X obj 443 122 t b;
#X obj 444 98 route reconnect;
#X obj 451 220 print cc;
#X obj 530 190 print c1;
#X obj 448 35 list trim;
#X connect 0 0 2 0;
#X connect 0 1 12 1;
#X connect 1 0 4 0;
#X connect 2 0 12 0;
#X connect 2 1 1 0;
#X connect 4 0 7 0;
#X connect 5 0 6 0;
#X connect 6 0 3 0;
#X connect 6 0 13 0;
#X connect 7 0 5 0;
#X connect 8 0 19 0;
#X connect 9 0 31 0;
#X connect 10 0 11 0;
#X connect 11 0 13 0;
#X connect 12 0 7 0;
#X connect 13 0 20 0;
#X connect 14 0 16 0;
#X connect 14 0 29 0;
#X connect 15 0 17 0;
#X connect 16 1 22 0;
#X connect 17 0 25 0;
#X connect 19 0 0 0;
#X connect 22 0 10 0;
#X connect 22 1 23 0;
#X connect 23 0 13 0;
#X connect 24 0 14 0;
#X connect 25 0 24 0;
#X connect 25 1 24 1;
#X connect 26 0 25 0;
#X connect 26 1 28 0;
#X connect 27 0 24 0;
#X connect 28 0 27 0;
#X connect 28 1 13 0;
#X connect 28 1 30 0;
#X connect 31 0 26 0;
