#N canvas 706 127 493 469 10;
#X obj 34 174 oReceive 3333;
#X text 15 19 oReceive-help;
#X obj 31 103 oSend localhost 3333;
#X obj 31 41 tgl 15 0 empty empty empty 17 7 0 10 -262144 -1 -1 1 1
;
#N canvas 56 97 583 472 randomizer 0;
#X obj 9 10 inlet;
#X obj 9 44 tgl 15 0 empty empty empty 17 7 0 10 -262144 -1 -1 1 1
;
#X obj 12 285 outlet;
#X obj 10 101 random 1e+06;
#X obj 11 192 /;
#X obj 28 164 random 1e+06;
#X obj 11 229 list prepend /test;
#X obj 11 133 t a b b;
#X obj 139 78 text define tester;
#X obj 137 118 text size tester;
#X obj 137 143 t b f;
#X obj 138 173 random;
#X obj 138 200 text get tester;
#X obj 10 73 metro 500;
#X connect 0 0 1 0;
#X connect 1 0 13 0;
#X connect 3 0 7 0;
#X connect 4 0 6 0;
#X connect 5 0 4 1;
#X connect 6 0 2 0;
#X connect 7 0 4 0;
#X connect 7 1 5 0;
#X connect 7 2 9 0;
#X connect 9 0 10 0;
#X connect 10 0 11 0;
#X connect 10 1 11 1;
#X connect 11 0 12 0;
#X connect 12 0 6 1;
#X connect 13 0 3 0;
#X restore 31 64 pd randomizer;
#X obj 86 292 print oReceive_assemble;
#X obj 187 258 print oReceive_value;
#X obj 258 228 print oReceive_radical;
#X obj 34 359 oRemSlash;
#X obj 34 384 print remSlash;
#X obj 34 209 t a a;
#X obj 259 192 spigot;
#X obj 303 192 tgl 15 0 empty empty empty 17 7 0 10 -262144 -1 -1 0
1;
#X obj 186 220 spigot;
#X obj 228 220 tgl 15 0 empty empty empty 17 7 0 10 -262144 -1 -1 0
1;
#X obj 87 258 spigot;
#X obj 129 259 tgl 15 1 empty empty empty 17 7 0 10 -262144 -1 -1 1
1;
#X obj 34 328 spigot;
#X obj 76 329 tgl 15 0 empty empty empty 17 7 0 10 -262144 -1 -1 0
1;
#X msg 78 142 3332;
#X msg 153 60 127.0.0.1 3332;
#X msg 148 33 localhost 3333;
#X msg 32 141 3333;
#X connect 0 0 10 0;
#X connect 0 1 13 0;
#X connect 0 2 11 0;
#X connect 3 0 4 0;
#X connect 4 0 2 0;
#X connect 8 0 9 0;
#X connect 10 0 17 0;
#X connect 10 1 15 0;
#X connect 11 0 7 0;
#X connect 12 0 11 1;
#X connect 13 0 6 0;
#X connect 14 0 13 1;
#X connect 15 0 5 0;
#X connect 16 0 15 1;
#X connect 17 0 8 0;
#X connect 18 0 17 1;
#X connect 19 0 0 0;
#X connect 20 0 2 1;
#X connect 21 0 2 1;
#X connect 22 0 0 0;
